# xmcd
#
# Track frame offsets: 
#        150
#        15188
#        29213
#        43739
#        62410
#        73992
#        81989
#        85770
#        89464
#        101695
#        113494
#        122195
#        125901
#        129539
#        143020
#        152652
#        168285
#        181223
#        194540
#        207464
#        219882
#        235931
#        244825
#        257846
#        260586
#        273008
#        279499
#        292293
#        301441
#        311078
#        322712
#
# Disc length: 4431 seconds
#
# Revision: 0
# Processed by: cddbd v1.5.2PL0 Copyright (c) Steve Scherf et al.
# Submitted via: ExactAudioCopy v1.1
#
DISCID=cc114d1f
DTITLE=Various Artist - Louisiana Hayride_CD11
DYEAR=2017
DGENRE=Country
TTITLE0=Faron Young - Alone With You (& Intro theme and talk)
TTITLE1=Jimmy and Johnny - I Can't Find The Doorknob
TTITLE2=Margie Singleton and The Four B's - You're The Nearest Thing To 
TTITLE2=Heaven
TTITLE3=Faron Young and The Four B's - Mansion Over The Hilltop
TTITLE4=Jimmy and Johnny - Down By The Riverside
TTITLE5=George Jones - I'm Ragged But I'm Right
TTITLE6=Horton and outro
TTITLE7=Hayride Theme Intro
TTITLE8=James O'Gwynn - Invitation To The Blues
TTITLE9=The Browns - Would You Care
TTITLE10=Jimmy Martin - Sunny Side Of The Mountain
TTITLE11=Talk and Outro
TTITLE12=Theme and intro
TTITLE13=Melvin Endsley - I'd Just Be Fool Enough
TTITLE14=Carl Belew - My Baby's Not Here In Town Tonight
TTITLE15=Jimmy Martin - When The Saviour Reached Down (& Outro)
TTITLE16=Johnny Horton - Honky Tonk Man (& Theme and intro)
TTITLE17=Louvin Brothers - Cash On The Barrelhead
TTITLE18=Louvin Brothers - My Baby Is Gone
TTITLE19=Margie Singleton and The Four B's - I Can't Help Wondering
TTITLE20=Charlie Walker - Pick Me Up On Your Way Down
TTITLE21=Jimmy Newman - Let The Whole World Talk
TTITLE22=Jimmy Newman - What A Friend We Have In Jesus
TTITLE23=Announcements and Outro
TTITLE24=Ernest Tubb - You're The Only Good Thing
TTITLE25=Ernest Tubb - Walking The Floor Over You
TTITLE26=Ernest Tubb - Traveling Blues
TTITLE27=Ray Price - I'll Sail My Ship Alone
TTITLE28=Ray Price - Oklahoma Hills
TTITLE29=Jim Reeves - How Many
TTITLE30=Jim Reeves - Waitin' For A Train
EXTD=
EXTT0=
EXTT1=
EXTT2=
EXTT3=
EXTT4=
EXTT5=
EXTT6=
EXTT7=
EXTT8=
EXTT9=
EXTT10=
EXTT11=
EXTT12=
EXTT13=
EXTT14=
EXTT15=
EXTT16=
EXTT17=
EXTT18=
EXTT19=
EXTT20=
EXTT21=
EXTT22=
EXTT23=
EXTT24=
EXTT25=
EXTT26=
EXTT27=
EXTT28=
EXTT29=
EXTT30=
PLAYORDER=
